<?xml version="1.0" standalone="no"?>
<!DOCTYPE svg PUBLIC "-//W3C//DTD SVG 20010904//EN"
 "http://www.w3.org/TR/2001/REC-SVG-20010904/DTD/svg10.dtd">
<svg version="1.0" xmlns="http://www.w3.org/2000/svg"
 width="540.000000pt" height="446.000000pt" viewBox="0 0 540.000000 446.000000"
 preserveAspectRatio="xMidYMid meet">
<metadata>
Created by potrace 1.16, written by Peter Selinger 2001-2019
</metadata>
<g transform="translate(0.000000,446.000000) scale(0.100000,-0.100000)"
fill="#000000" stroke="none">
<path d="M2020 4449 c-19 -5 -93 -15 -164 -23 -71 -9 -131 -17 -133 -20 -6 -6
38 -66 49 -66 4 0 8 -7 8 -16 0 -8 15 -39 34 -67 42 -65 96 -168 96 -184 0 -7
12 -38 26 -70 20 -44 25 -69 21 -106 -3 -40 -1 -50 16 -62 18 -13 19 -15 4
-21 -9 -3 -23 -4 -31 -1 -14 5 -46 98 -46 131 0 9 -9 34 -20 56 -11 22 -20 47
-20 56 0 43 -69 198 -116 261 -30 40 -87 57 -168 50 -64 -6 -87 -24 -122 -97
-9 -19 -28 -47 -41 -62 -14 -15 -30 -46 -35 -70 -21 -99 -26 -133 -18 -142 10
-10 1 -38 -14 -48 -17 -12 6 -41 39 -50 33 -8 48 -1 25 12 -19 11 -28 154 -10
165 6 4 8 20 4 41 -6 35 9 69 46 106 10 9 20 23 23 30 4 9 8 10 14 2 4 -6 20
-14 34 -17 16 -4 37 -24 56 -56 l31 -49 -43 -7 c-52 -7 -58 -14 -78 -82 -14
-45 -14 -53 -1 -64 10 -8 11 -15 4 -24 -13 -16 -2 -45 17 -45 11 0 13 -7 8
-30 -6 -26 -3 -31 20 -40 14 -5 38 -10 52 -10 22 0 25 -3 20 -27 -3 -15 0 -35
6 -45 9 -14 8 -24 -6 -47 -24 -41 -22 -53 9 -45 20 5 25 3 22 -6 -2 -7 -17
-14 -33 -15 -32 -1 -74 37 -75 67 0 21 -28 129 -35 136 -5 5 -10 -8 -19 -49
-3 -15 -14 -29 -24 -31 -20 -6 -54 -86 -53 -125 1 -27 -2 -27 -32 -10 -26 14
-53 48 -49 61 2 5 0 16 -3 24 -4 11 -8 12 -20 2 -12 -10 -15 -9 -15 6 0 16 -3
16 -25 -6 -16 -17 -26 -39 -28 -68 -3 -23 -12 -51 -21 -60 -9 -10 -17 -29 -17
-43 -1 -17 -3 -19 -6 -6 -7 26 -23 10 -23 -24 0 -17 -6 -32 -15 -35 -8 -3 -17
-16 -20 -27 -12 -43 -50 -116 -61 -117 -19 0 -55 -46 -49 -62 8 -21 -53 -93
-97 -113 l-37 -18 34 -23 c64 -43 67 -44 140 -23 84 23 80 23 99 3 15 -14 16
-13 16 6 0 16 -4 20 -15 16 -8 -3 -15 -1 -15 3 0 7 23 21 34 21 1 0 3 -12 4
-26 3 -38 11 -46 41 -39 14 4 110 7 214 6 l187 -1 1 43 c1 40 1 40 8 11 11
-43 18 -53 39 -49 9 2 20 4 24 4 3 1 9 18 13 40 7 44 39 67 79 57 19 -5 26
-13 26 -31 0 -32 -18 -41 -35 -19 -13 18 -14 18 -15 2 0 -10 -9 -23 -20 -30
-13 -8 -20 -24 -20 -42 0 -27 -1 -28 -13 -12 -8 11 -19 15 -30 10 -20 -7 -21
-13 -7 -50 10 -24 9 -26 -12 -21 -14 4 -29 0 -40 -10 -10 -9 -18 -13 -18 -8 0
4 -7 2 -15 -5 -11 -9 -18 -10 -29 -1 -11 9 -12 7 -6 -16 17 -64 22 -71 55 -77
39 -8 72 8 82 39 5 18 6 18 16 -5 10 -24 10 -24 17 13 7 36 20 62 20 39 0 -6
14 -18 31 -26 l31 -16 -5 28 c-3 15 -9 35 -13 46 -5 13 -3 17 6 14 8 -2 19
-22 26 -44 11 -35 12 -36 13 -11 1 15 -8 46 -19 67 -21 41 -15 56 8 20 22 -36
28 -14 26 92 -2 57 -1 94 2 83 16 -70 27 -105 33 -105 7 0 41 37 41 45 0 3 -7
5 -15 5 -27 0 -16 28 23 58 44 35 69 30 58 -12 -8 -32 -6 -32 27 -2 23 21 25
29 17 51 -7 20 -15 25 -29 20 -14 -4 -21 1 -29 24 -6 16 -8 32 -5 35 14 13 32
5 35 -16 2 -16 13 -24 38 -30 19 -5 49 -15 65 -23 30 -14 30 -15 5 -16 -14 -1
-29 -1 -33 0 -5 1 -6 -3 -2 -9 3 -5 1 -10 -4 -10 -29 0 -4 -18 62 -44 73 -30
101 -46 79 -46 -22 0 -51 -38 -45 -59 4 -16 9 -18 23 -11 9 5 20 7 22 4 3 -2
11 2 18 11 21 25 90 17 90 -11 0 -9 12 -14 35 -14 40 0 294 -35 360 -50 40 -9
57 -6 149 24 79 26 116 34 153 31 56 -5 148 18 157 40 3 9 18 15 36 15 17 0
39 9 51 21 11 11 26 18 32 16 7 -2 24 18 40 45 15 26 34 48 42 48 16 0 6 -30
-85 -250 -78 -190 -120 -298 -120 -310 0 -5 7 -10 15 -10 8 0 12 6 9 13 -4 12
46 151 74 203 10 19 44 93 75 167 9 20 21 37 26 37 5 0 11 9 14 20 4 17 14 20
61 22 31 1 64 2 74 2 15 1 17 -13 17 -159 0 -135 2 -160 15 -160 12 0 14 14
12 75 -4 119 12 238 34 256 18 14 18 15 -3 30 -13 9 -23 25 -23 35 0 12 -7 19
-19 19 -14 0 -17 -6 -14 -24 4 -21 0 -24 -57 -35 -34 -7 -64 -10 -67 -7 -10
10 9 26 32 26 13 0 27 5 30 10 3 6 15 10 26 10 10 0 19 4 19 8 0 11 -87 34
-125 33 -65 -1 -124 63 -141 154 -8 45 -14 48 -55 31 -19 -8 -47 -16 -64 -19
-30 -5 -83 -22 -180 -58 -27 -10 -70 -23 -95 -29 -25 -6 -72 -19 -105 -29 -33
-11 -87 -27 -120 -36 -97 -28 -278 -85 -302 -95 -17 -7 -28 -3 -52 18 -17 14
-31 30 -31 34 0 4 -20 28 -44 54 -33 34 -50 45 -65 41 -24 -6 -94 16 -99 32
-2 6 -13 11 -23 11 -11 0 -17 5 -14 10 3 6 35 10 70 10 53 0 68 4 85 22 18 20
19 23 4 31 -9 5 -45 10 -80 10 -66 1 -65 0 -68 48 -1 8 -8 22 -16 31 -37 38
-60 70 -78 105 -10 21 -24 48 -32 60 -12 18 -12 24 0 37 12 15 14 15 31 0 11
-10 19 -28 19 -41 0 -13 8 -26 18 -30 9 -4 22 -12 27 -19 6 -6 25 -14 43 -18
19 -3 48 -12 65 -20 61 -27 135 -28 246 -1 122 30 132 30 152 7 14 -16 39 -20
195 -26 98 -4 193 -7 209 -7 34 2 175 65 175 80 0 5 2 16 6 24 6 17 -45 28
-89 20 -22 -4 -27 -11 -27 -34 0 -31 -15 -35 -70 -20 l-24 7 24 17 c15 10 24
27 25 44 0 22 6 28 30 34 17 4 73 18 125 32 l95 24 -1 39 c-1 21 -9 102 -19
179 -10 77 -18 155 -19 174 -1 26 -7 36 -25 43 -19 7 -22 11 -13 20 7 7 12 24
12 39 0 35 19 89 32 89 6 0 8 7 5 15 -4 8 -2 17 3 20 6 4 10 11 10 16 0 12
-1080 10 -1130 -2z"/>
<path d="M250 4279 c-25 -4 -91 -12 -148 -19 l-102 -12 0 -448 0 -448 196 -48
c195 -49 209 -55 247 -106 10 -15 18 -16 54 -7 31 8 51 8 74 0 40 -14 89 -14
89 -1 0 6 -7 10 -15 10 -9 0 -12 6 -9 15 4 8 2 15 -3 15 -5 0 -10 6 -10 13 0
6 -9 44 -21 82 -11 39 -25 95 -31 125 -40 196 -76 328 -107 388 -39 75 -45
116 -47 317 l-2 130 -60 1 c-33 0 -80 -3 -105 -7z"/>
<path d="M4561 4033 c-1 -29 -29 -43 -83 -43 -53 0 -84 -16 -47 -24 24 -5 553
-46 598 -46 13 0 22 3 18 6 -3 4 -100 17 -215 30 -115 13 -221 28 -235 33 -17
7 -27 19 -30 38 -3 21 -4 23 -6 6z"/>
<path d="M4043 4028 c-13 -6 -23 -14 -23 -19 0 -4 10 -5 23 -3 l22 5 -22 -12
c-13 -7 -23 -16 -23 -21 0 -5 -5 -6 -12 -2 -6 4 -8 3 -5 -3 3 -5 -3 -24 -14
-41 -23 -39 -24 -46 -4 -38 12 4 14 0 9 -19 -5 -20 -3 -24 10 -19 13 5 16 -1
16 -26 l0 -33 30 34 30 34 0 -57 c0 -31 -3 -63 -6 -72 -10 -25 -24 -19 -25 12
-1 26 -1 26 -15 -8 -31 -75 -33 -76 -27 -20 6 61 4 62 -26 5 l-21 -40 0 35 c1
19 7 53 15 75 8 21 13 41 11 43 -5 4 -49 -114 -70 -183 l-15 -50 5 55 c6 68
-9 49 -30 -37 l-14 -58 -1 42 c-2 71 -16 56 -39 -40 -24 -106 -38 -249 -28
-301 9 -45 39 -50 54 -8 10 26 10 26 11 -13 1 -30 4 -36 11 -25 15 23 12 7
-17 -101 -16 -61 -31 -99 -39 -99 -8 0 -11 6 -7 16 4 12 2 15 -8 12 -16 -5
-19 -75 -6 -147 8 -45 8 -45 -12 -27 -11 10 -18 22 -16 27 8 12 -6 89 -16 89
-5 0 -10 -12 -10 -27 -1 -21 -3 -18 -8 12 -4 22 -1 67 6 100 14 71 2 94 -17
33 -9 -27 -15 -37 -18 -25 -2 9 -13 17 -24 17 -20 0 -20 1 -5 18 14 15 16 31
11 80 -4 34 -11 62 -16 62 -6 0 -7 -22 -4 -52 6 -51 6 -52 -9 -28 -15 25 -16
24 -11 -20 3 -25 8 -60 12 -79 4 -22 3 -36 -6 -41 -10 -6 -9 -18 4 -55 8 -26
13 -52 9 -58 -4 -6 -6 -24 -5 -39 1 -15 -2 -28 -8 -28 -5 0 -10 -19 -10 -42 0
-26 -10 -63 -25 -92 -14 -27 -24 -50 -22 -51 1 -1 11 -7 22 -13 19 -10 17 -12
-17 -26 -46 -20 -57 -36 -24 -36 31 0 34 -16 6 -25 -28 -9 -47 -45 -24 -45 14
0 15 -2 3 -17 -13 -15 -12 -15 11 -3 24 13 24 12 10 -5 -14 -17 -13 -18 15
-11 l30 7 -25 -21 -25 -21 37 3 c36 4 37 3 20 -16 -17 -18 -16 -19 16 -13 18
4 32 2 32 -3 0 -6 -6 -10 -12 -11 -7 0 -2 -5 12 -10 20 -8 22 -12 10 -19 -13
-8 -12 -10 3 -10 9 0 17 -7 17 -15 0 -8 8 -15 17 -15 13 0 14 -3 5 -12 -19
-19 -15 -25 21 -33 30 -8 30 -8 7 -12 -41 -6 -83 -25 -119 -51 -38 -29 -65
-81 -49 -99 32 -39 -105 -84 -162 -53 -13 7 -19 6 -24 -5 -3 -8 -12 -12 -20
-9 -18 7 -23 -12 -26 -106 -3 -120 -10 -94 -10 38 l0 121 -87 26 c-49 14 -99
30 -113 34 -20 7 -60 -9 -214 -86 -104 -52 -185 -98 -180 -102 15 -14 167 -61
196 -61 14 0 28 -4 30 -9 3 -8 532 -191 726 -251 52 -16 97 -31 100 -34 16
-17 -17 -9 -148 33 -80 26 -253 83 -385 125 -132 42 -256 83 -276 90 -20 8
-56 12 -80 11 -36 -3 -39 -2 -19 6 20 7 16 8 -19 5 -24 -3 -47 -10 -52 -17 -9
-14 7 -39 24 -39 6 0 2 7 -9 15 -12 9 -14 14 -6 15 22 0 41 -24 28 -36 -7 -7
-24 -6 -51 2 -22 7 -34 13 -26 13 8 1 12 3 9 6 -3 3 -16 1 -29 -3 -23 -9 -23
-10 11 -17 19 -4 46 -13 60 -20 14 -7 93 -34 175 -60 83 -26 161 -51 175 -55
14 -5 45 -14 69 -20 23 -6 41 -14 38 -17 -3 -2 -45 7 -94 22 -86 26 -303 92
-393 120 -349 105 -425 126 -443 121 -12 -3 -61 2 -110 10 -48 8 -94 13 -100
11 -18 -7 7 -14 107 -27 l88 -12 -5 -162 c-3 -88 -11 -251 -17 -361 -9 -166
-8 -202 3 -210 8 -5 12 -15 10 -21 -2 -6 18 -23 44 -38 27 -15 39 -24 28 -20
-90 33 -218 50 -141 19 27 -12 28 -12 6 -18 -29 -8 -59 5 -89 37 -14 14 -31
26 -40 26 -11 0 -10 -3 5 -15 25 -19 3 -19 -42 0 l-36 15 -57 -58 c-69 -70
-114 -93 -138 -69 -18 18 -40 73 -53 132 -14 64 -11 132 10 245 11 58 22 131
26 163 5 57 6 58 24 42 11 -10 26 -38 34 -64 16 -50 55 -252 66 -341 5 -41 8
-50 15 -37 11 26 -2 212 -25 342 -11 61 -22 142 -24 180 -3 50 -12 85 -30 121
-33 66 -36 134 -6 134 11 0 20 5 20 10 0 6 -9 10 -19 10 -26 0 -52 52 -57 115
-3 28 -9 63 -14 79 -6 16 -10 57 -10 91 0 34 -5 87 -11 119 -15 82 -6 86 38
19 10 -15 13 -16 22 -3 5 8 13 11 17 7 4 -3 1 -13 -5 -21 -10 -12 -8 -17 8
-25 34 -18 72 -12 159 25 46 20 90 37 98 38 8 1 19 7 26 14 8 8 15 5 25 -15 7
-14 13 -34 13 -45 0 -29 17 -12 22 22 3 16 2 28 0 25 -3 -3 -11 8 -19 23 -13
24 -20 42 -48 117 -5 16 -3 15 13 -5 26 -31 39 -21 14 11 -34 44 -46 96 -32
140 7 22 19 39 26 39 7 0 93 -20 191 -44 213 -53 243 -58 243 -46 0 5 -4 11
-9 15 -6 3 -13 27 -16 53 -9 66 -20 92 -60 135 -19 21 -35 41 -35 45 0 4 -14
23 -30 42 -16 19 -30 43 -30 53 0 21 -38 37 -89 37 -21 0 -41 3 -45 8 -4 4
-11 7 -14 8 -4 0 -14 4 -24 8 -17 8 -98 -36 -98 -53 0 -5 -7 -8 -15 -7 -17 2
-18 7 -8 33 4 9 2 18 -4 20 -5 2 -9 19 -7 38 1 19 -2 35 -7 35 -5 0 -9 -8 -9
-17 -1 -16 -2 -16 -16 2 -16 20 -16 20 -9 -3 5 -19 3 -23 -12 -20 -13 2 -17
-2 -15 -16 3 -15 1 -16 -12 -5 -12 12 -12 16 -2 24 15 12 18 62 5 71 -5 3 -12
-1 -15 -10 -3 -8 -12 -12 -20 -9 -8 3 -14 1 -14 -3 -1 -37 -50 -39 -50 -2 0
11 -5 18 -12 16 -19 -7 -22 -38 -5 -38 8 0 17 -9 20 -21 3 -12 10 -18 16 -14
7 3 8 0 5 -9 -3 -9 -12 -16 -20 -16 -8 0 -14 -10 -14 -24 0 -19 -4 -23 -19
-19 -15 4 -20 -1 -24 -24 l-4 -28 -2 28 c-1 37 -25 31 -29 -7 -2 -19 4 -35 17
-47 12 -11 21 -27 21 -37 1 -16 2 -15 14 1 20 27 27 8 29 -83 1 -48 5 -79 12
-79 26 3 35 -2 35 -21 0 -11 -7 -20 -15 -20 -10 0 -15 -10 -15 -27 -1 -24 -2
-25 -11 -11 -15 27 -37 106 -31 112 3 4 0 6 -6 6 -8 0 -12 -20 -12 -55 0 -30
-4 -55 -10 -55 -5 0 -10 10 -10 23 0 37 -24 94 -38 89 -7 -2 -9 -8 -6 -14 7
-11 -25 -7 -58 7 -15 6 -18 2 -18 -19 0 -27 -6 -31 -29 -17 -7 5 -10 14 -7 20
10 16 -13 14 -30 -3 -17 -18 -18 -25 0 -45 17 -20 29 -71 17 -71 -5 0 -30 24
-55 53 -25 30 -67 65 -93 79 -85 47 -240 81 -336 76 -31 -2 -57 0 -57 5 0 7
-22 5 -127 -9 -36 -5 -43 -3 -43 10 0 14 6 16 36 10 39 -7 122 22 106 38 -14
14 -69 13 -87 -2 -12 -10 -19 -11 -23 -3 -4 6 -50 16 -102 21 -86 8 -99 7
-140 -12 -26 -12 -71 -47 -101 -79 -31 -31 -63 -57 -71 -57 -21 0 -48 -32 -48
-57 0 -11 -7 -26 -15 -33 -13 -10 -15 -9 -15 8 0 12 5 24 10 27 6 3 10 12 10
18 -1 7 -10 1 -21 -13 -11 -14 -37 -43 -57 -65 -21 -22 -70 -95 -111 -162 -40
-67 -79 -127 -87 -134 -8 -6 -14 -20 -14 -30 0 -10 -5 -21 -11 -24 -12 -8 -29
-50 -34 -85 -2 -14 -9 -38 -16 -55 -6 -16 -13 -35 -14 -41 -2 -5 -12 -30 -24
-54 -11 -24 -21 -51 -21 -60 0 -9 -4 -20 -9 -26 -4 -5 -20 -44 -35 -88 -15
-43 -34 -92 -42 -108 -18 -35 -52 -136 -66 -193 -5 -22 -12 -51 -15 -65 -8
-29 -16 -806 -9 -799 13 13 76 192 76 215 0 15 12 42 26 61 14 19 23 41 20 48
-3 8 0 15 6 15 15 0 88 -50 88 -61 0 -4 9 -10 19 -14 24 -7 121 -99 121 -113
0 -6 10 -18 22 -26 23 -16 27 -57 13 -128 -4 -22 -3 -38 2 -38 11 0 4 -73 -9
-81 -5 -3 -13 -30 -18 -60 -5 -30 -16 -79 -25 -109 -9 -30 -18 -66 -21 -80 -2
-14 -11 -38 -19 -55 -8 -16 -19 -49 -25 -71 -6 -23 -17 -47 -25 -54 -8 -7 -15
-21 -15 -31 0 -11 -4 -19 -9 -19 -5 0 -7 -8 -4 -19 2 -10 -2 -25 -10 -32 -8
-8 -16 -32 -19 -52 l-4 -37 1089 0 1088 0 -68 77 c-37 42 -80 90 -95 106 -16
16 -28 33 -28 38 0 6 -3 8 -8 5 -4 -2 -12 7 -19 20 -6 13 -7 24 -2 24 5 0 9
-3 9 -8 0 -4 9 -13 20 -20 17 -10 26 -8 61 14 55 34 117 56 143 49 88 -25 119
-55 121 -121 2 -41 1 -42 -39 -51 l-41 -10 27 -12 c31 -16 45 -51 20 -51 -10
0 -26 7 -36 15 -31 23 -36 18 -36 -30 l0 -45 498 0 497 0 -30 20 c-26 17 -27
20 -9 20 11 0 39 -9 62 -20 30 -15 61 -20 116 -20 69 0 74 1 69 20 -7 26 9 26
32 0 18 -20 30 -20 704 -19 595 0 682 2 656 14 -97 45 -148 65 -169 65 -12 0
-26 3 -29 6 -8 8 -119 54 -130 54 -5 0 -42 16 -83 35 -40 19 -80 35 -89 35 -8
0 -15 5 -15 11 0 7 -11 9 -27 5 -16 -3 -22 -3 -15 0 9 4 5 11 -13 20 -33 17
-49 18 -39 3 4 -8 -3 -9 -27 -4 -43 10 -70 27 -65 42 6 14 -41 46 -54 38 -6
-3 -10 -12 -10 -20 0 -7 -16 -27 -35 -44 -37 -32 -57 -36 -139 -25 l-47 7 7
163 c4 90 4 164 0 164 -4 0 -19 -6 -34 -14 -60 -31 -151 -28 -278 9 -19 6 -20
3 -18 -37 1 -24 2 -43 4 -43 1 0 3 -24 4 -53 2 -28 -1 -52 -6 -52 -11 0 -10
-44 2 -56 6 -6 3 -28 -11 -64 l-21 -55 37 -33 c20 -19 34 -37 30 -40 -3 -4 -9
-2 -13 4 -4 6 -29 19 -57 28 -27 10 -58 22 -67 27 -10 5 -21 9 -25 9 -10 -1
39 -39 50 -40 10 0 37 -26 37 -35 0 -4 -11 -5 -24 -3 -21 4 -23 3 -13 -14 7
-10 16 -18 22 -18 5 0 19 -8 30 -16 19 -15 19 -15 -10 -8 -16 4 -34 9 -40 12
-5 3 -26 5 -47 3 -26 -2 -42 3 -57 18 -12 12 -28 21 -36 21 -8 0 -15 5 -15 10
0 6 17 10 37 10 29 0 34 3 25 12 -9 9 -20 9 -46 0 -39 -14 -86 -7 -86 14 0 7
16 28 35 45 19 18 32 35 30 39 -2 4 -46 28 -97 53 -51 25 -102 53 -113 62 -19
16 -19 16 10 10 17 -3 26 -2 20 2 -5 4 -10 19 -10 33 0 19 4 24 19 22 17 -3
18 -2 7 12 -11 13 -11 16 -1 16 9 0 8 6 -4 19 -12 13 -14 24 -7 42 7 19 4 29
-16 51 -23 24 -24 28 -10 48 8 12 33 35 56 51 22 17 41 36 41 43 0 8 11 11 32
8 l31 -5 -21 23 c-12 13 -19 27 -16 32 3 4 -1 8 -10 8 -8 0 -16 5 -18 11 -2 5
-20 11 -41 12 -42 2 -41 1 -23 30 8 13 19 77 26 157 17 197 24 245 36 245 6 0
90 -31 187 -70 143 -56 176 -73 172 -86 -4 -12 2 -18 23 -22 16 -3 34 -17 42
-31 14 -27 40 -35 40 -13 0 7 5 18 11 24 12 12 11 12 111 -31 20 -9 42 -16 50
-16 8 0 18 -4 23 -9 6 -4 44 -21 85 -36 41 -15 138 -54 215 -85 201 -82 402
-160 415 -160 17 0 12 -7 -37 -57 -56 -55 -68 -56 -157 -11 -46 23 -73 30
-130 32 -43 1 -84 9 -105 19 -19 9 -47 17 -62 17 -15 0 -31 4 -34 10 -3 5 -32
10 -64 10 -32 0 -63 6 -70 13 -11 10 -12 9 -5 -3 5 -8 11 -40 14 -70 5 -55 5
-55 43 -61 65 -10 90 -36 137 -139 8 -19 8 -34 1 -54 -16 -39 -14 -42 22 -57
17 -7 59 -25 92 -39 33 -15 96 -42 140 -60 44 -18 94 -38 110 -45 17 -6 46
-18 65 -25 19 -7 42 -18 50 -25 8 -6 44 -24 80 -40 36 -17 68 -34 71 -38 3 -4
23 -10 45 -14 21 -3 46 -12 55 -19 36 -31 112 -44 267 -44 128 0 152 2 152 15
0 8 -7 15 -15 15 -7 0 -18 7 -23 16 -5 9 -47 29 -93 45 -46 16 -94 34 -105 40
-12 6 -33 12 -48 12 -29 2 -34 22 -12 52 12 17 19 15 143 -38 72 -32 136 -57
142 -57 8 0 11 159 11 589 0 537 -1 589 -16 595 -9 4 -14 9 -11 12 7 7 -11 28
-33 38 -20 8 19 1 43 -9 14 -6 17 -2 17 23 0 16 -6 32 -14 35 -14 6 -11 53 5
63 5 3 9 26 9 51 0 36 -4 46 -20 50 -11 3 -20 11 -20 17 0 6 9 29 20 51 13 26
20 58 19 95 l0 55 -24 -67 c-13 -37 -21 -77 -18 -90 4 -19 3 -20 -7 -8 -9 12
-10 11 -5 -9 5 -17 4 -22 -6 -16 -9 6 -11 2 -7 -13 4 -12 2 -22 -4 -22 -5 0
-7 -4 -4 -8 6 -10 -18 -90 -64 -212 -17 -47 -36 -114 -40 -150 l-9 -65 4 77
c2 48 18 131 44 225 33 123 39 155 31 183 -5 18 -15 37 -22 42 -10 5 -8 8 5 8
9 0 17 5 17 12 0 6 6 4 13 -6 13 -17 15 -14 31 34 16 47 16 54 2 69 -9 10 -16
28 -16 40 0 35 -28 81 -50 81 -12 0 -17 5 -14 14 3 7 -2 20 -10 29 -10 10 -14
25 -10 44 5 27 3 29 -53 46 -33 9 -67 17 -77 17 -15 0 -17 5 -12 35 8 40 -1
44 -41 18 -25 -16 -25 -16 -20 2 3 11 11 39 17 62 6 23 14 44 18 46 6 4 82 -9
192 -32 100 -21 140 -23 140 -7 0 9 -7 16 -15 16 -9 0 -32 7 -53 15 -42 18
-33 30 30 40 l38 7 -1 201 c-1 117 -4 191 -9 177 -4 -14 -8 -39 -9 -55 -1 -17
-7 -37 -13 -43 -20 -20 -35 107 -27 235 6 111 2 173 -11 173 -5 0 -8 83 -9
184 0 180 0 183 22 194 l22 11 -22 0 c-30 1 -38 18 -14 30 38 21 50 14 48 -29
-1 -22 4 -45 11 -52 9 -9 12 9 12 84 l0 97 -47 6 c-84 11 -103 16 -111 30 -4
8 -45 21 -95 29 -99 18 -107 21 -107 42 0 28 -30 74 -58 88 -17 9 -84 17 -187
22 -88 4 -162 8 -165 9 -58 16 -103 16 -126 0 -24 -15 -26 -21 -19 -59 4 -22
8 -58 10 -78 2 -20 6 -41 10 -47 3 -6 0 -11 -8 -11 -29 0 -56 115 -61 255 -2
39 -8 80 -13 90 -6 11 -13 39 -17 62 -4 32 -17 52 -51 85 -24 24 -45 48 -45
53 0 16 -39 36 -55 28 -14 -8 -48 -52 -87 -112 -12 -19 -24 -29 -26 -23 -4 13
19 56 55 100 l27 34 -62 -5 c-38 -4 -60 -2 -57 4 8 12 -34 10 -62 -3z m1181
-764 c27 -13 36 -25 41 -52 7 -38 5 -258 -3 -280 -4 -10 -16 -12 -48 -7 -27 4
-44 2 -44 -4 0 -5 20 -13 45 -17 25 -3 42 -10 40 -15 -3 -4 -17 -4 -31 1 -14
6 -40 10 -58 10 -46 0 -98 20 -92 35 2 7 0 17 -5 22 -5 5 -15 31 -23 58 -18
59 -11 70 72 118 58 32 84 69 64 89 -9 9 -20 9 -48 -1 -19 -7 -37 -11 -40 -9
-2 3 -1 19 2 36 6 30 9 32 50 32 24 0 59 -7 78 -16z m-914 -337 c-10 -119 -15
-413 -7 -472 1 -15 -8 -23 -40 -34 -40 -14 -57 -31 -32 -31 6 0 17 -6 25 -14
7 -8 19 -16 26 -18 7 -3 8 -10 3 -17 -5 -10 -21 -11 -55 -7 -36 5 -49 3 -53
-8 -13 -33 -122 20 -194 96 -56 58 -78 121 -78 223 0 68 4 96 17 113 18 27 66
55 79 47 15 -10 31 77 24 139 l-6 61 23 -40 c21 -35 28 -40 63 -42 42 -3 80
19 86 50 2 8 31 46 64 82 59 65 60 66 64 38 1 -15 -2 -90 -9 -166z m639 -47
c0 -14 -3 -19 -6 -12 -5 13 -33 17 -33 4 0 -5 25 -16 56 -26 74 -23 144 -94
138 -140 -2 -17 -6 -60 -9 -95 -13 -161 -121 -541 -153 -541 -31 0 -62 12 -62
24 0 6 14 40 31 76 26 56 30 72 24 115 -6 47 -9 63 -35 148 -17 58 -24 309
-10 396 12 76 14 80 36 79 19 -2 24 -8 23 -28z m-1153 -644 c27 -23 27 -24 10
-41 -13 -13 -16 -27 -12 -48 9 -43 20 -53 74 -67 26 -6 57 -16 69 -20 15 -6
40 -4 75 6 47 15 53 15 64 0 6 -9 16 -16 21 -16 6 0 16 -7 23 -15 10 -12 10
-15 -2 -15 -8 0 -18 4 -23 8 -6 5 -31 3 -57 -5 -38 -11 -48 -20 -57 -45 -9
-24 -8 -33 1 -39 7 -5 15 -3 19 3 4 6 13 8 20 6 9 -3 2 -11 -17 -21 -37 -19
-48 -41 -34 -67 14 -26 13 -30 -11 -30 -14 0 -19 -5 -17 -17 4 -20 48 -34 65
-20 13 9 51 1 40 -9 -3 -3 -31 -9 -62 -13 -57 -8 -58 -8 -69 21 -8 20 -16 28
-28 24 -21 -5 -23 12 -3 38 8 10 21 16 29 13 13 -5 15 2 13 45 l-3 50 -155 47
c-147 44 -154 47 -157 74 -3 21 1 27 16 27 11 0 25 -6 31 -14 6 -8 21 -16 31
-19 17 -4 20 0 20 24 0 17 -9 42 -21 58 -28 38 -23 83 11 92 46 13 69 9 96
-15z m-1116 -1304 c0 -4 -11 -19 -25 -34 -14 -15 -25 -36 -25 -47 0 -31 -18
-35 -22 -5 l-3 27 -27 -27 c-30 -31 -46 -99 -28 -121 6 -7 25 -17 41 -20 16
-4 29 -11 29 -15 0 -5 -8 -7 -17 -3 -17 6 -17 5 -1 -13 14 -17 15 -23 3 -51
-8 -18 -21 -33 -30 -33 -21 0 -19 -9 7 -37 29 -31 14 -59 -28 -55 -21 2 -33
-4 -43 -20 -12 -20 -11 -24 18 -50 17 -15 31 -30 31 -33 0 -8 -54 16 -61 27
-5 7 -19 0 -39 -20 -26 -26 -39 -32 -76 -32 -75 0 -117 -26 -172 -106 -12 -17
-12 -17 -7 7 3 19 0 29 -12 33 -12 5 -14 9 -5 18 16 16 16 62 0 52 -7 -4 -8
-3 -4 4 9 15 53 16 61 2 3 -5 11 -10 17 -10 6 0 8 3 5 7 -4 3 -3 11 2 17 5 6
14 29 21 51 7 22 16 45 20 50 4 6 10 26 14 45 3 19 12 47 20 62 12 22 13 47 5
128 -7 79 -7 105 4 119 11 17 15 17 31 5 11 -7 16 -20 13 -29 -4 -8 -3 -15 2
-15 13 0 38 32 57 75 15 30 26 41 47 43 15 2 34 -4 43 -12 21 -22 57 -20 79 4
18 19 55 28 55 12z"/>
<path d="M5186 3915 c-3 -9 0 -15 9 -15 11 0 12 -5 5 -22 -15 -37 -31 -191
-21 -201 11 -11 93 -17 122 -10 18 5 17 7 -10 24 -29 17 -29 20 -24 76 3 32
10 66 14 75 5 9 9 29 9 44 0 25 -2 26 -35 21 -23 -4 -40 -1 -49 8 -12 13 -15
12 -20 0z"/>
<path d="M3566 3761 c-5 -7 4 -14 23 -17 27 -6 30 -9 24 -38 -3 -17 -6 -33 -6
-36 -2 -17 28 -90 37 -90 6 0 4 -4 -4 -10 -8 -5 -12 -12 -8 -15 10 -10 78 23
98 47 24 29 28 108 5 108 -8 0 -15 9 -15 19 0 11 -5 23 -12 27 -21 13 -135 17
-142 5z"/>
<path d="M805 3129 c42 -10 63 -24 52 -35 -4 -4 -15 1 -26 10 -22 20 -88 19
-83 -1 1 -7 -3 -13 -9 -13 -8 0 -8 -4 0 -14 9 -11 20 -12 44 -5 40 11 37 12
37 -5 0 -7 -8 -17 -17 -20 -10 -4 -29 -13 -43 -21 -14 -7 -38 -16 -55 -19 -16
-4 -24 -3 -17 0 6 3 12 10 12 15 0 6 -8 6 -19 -1 -30 -16 -61 -13 -55 5 4 9 0
15 -10 15 -9 0 -16 -7 -16 -15 0 -8 -9 -23 -20 -32 -25 -21 -25 -29 -2 -36 9
-2 25 -8 35 -12 13 -5 17 -2 17 14 0 12 6 21 13 22 69 3 101 8 152 23 33 9 67
19 75 23 8 3 26 5 40 4 14 -1 33 4 43 12 18 12 17 15 -16 40 -40 30 -110 57
-147 56 -18 -1 -13 -4 15 -10z"/>
<path d="M37 3018 l-38 -10 3 -72 3 -71 34 -3 c19 -2 51 4 71 13 39 18 81 17
87 -1 2 -6 -8 -16 -23 -22 -39 -18 -25 -33 52 -58 54 -18 82 -22 132 -17 52 5
62 9 57 22 -12 29 -10 34 10 40 40 12 9 71 -37 71 -6 0 -25 7 -44 15 -19 8
-49 22 -68 30 -19 8 -36 15 -40 15 -3 0 -25 14 -49 30 -48 32 -82 36 -150 18z"/>
<path d="M2835 2918 c-53 -157 -76 -285 -54 -299 33 -21 49 -10 49 30 0 22 5
52 10 67 16 42 25 200 11 208 -6 4 -13 1 -16 -6z"/>
<path d="M34 2778 l-31 -10 -2 -215 -2 -215 28 6 c15 4 40 13 56 21 26 13 27
13 26 -13 -3 -71 -12 -84 -61 -99 l-48 -14 0 -96 0 -96 36 6 c39 7 84 32 84
47 0 5 -16 16 -35 24 -19 8 -35 18 -35 23 0 4 12 17 27 29 21 16 31 37 41 85
7 35 13 73 13 84 0 11 5 63 12 115 10 89 14 99 54 152 42 55 52 78 34 78 -5 0
-14 14 -21 30 -20 49 -45 56 -75 23 -13 -15 -25 -35 -25 -44 0 -17 -23 -32
-33 -23 -3 3 -1 20 4 37 13 45 11 77 -3 76 -7 -1 -27 -6 -44 -11z"/>
<path d="M4057 533 c-4 -3 -7 -29 -8 -57 0 -28 -4 -73 -9 -101 -9 -56 3 -79
50 -97 43 -16 87 -2 99 34 15 43 14 112 -3 153 -19 45 -106 91 -129 68z"/>
</g>
</svg>
